<?xml version="1.0" encoding="utf-8"?>
<svg width="302px" height="302px" viewBox="0 0 302 302" version="1.1" xmlns:xlink="http://www.w3.org/1999/xlink" xmlns="http://www.w3.org/2000/svg">
  <g id="Group-2" transform="translate(1 1)">
    <path d="M150 0C67.1573 0 0 67.1573 0 150C0 232.843 67.1573 300 150 300C232.843 300 300 232.843 300 150C300 67.1573 232.843 0 150 0ZM150 26C81.5167 26 26 81.5167 26 150C26 218.483 81.5167 274 150 274C218.483 274 274 218.483 274 150C274 81.5167 218.483 26 150 26Z" id="Ellipse-Difference" fill="#540E33" fill-rule="evenodd" stroke="none" />
    <g id="Group" transform="translate(95 69)">
      <path d="M36.4132 2.53421L77.5048 2.53421C81.9233 2.37071 85.9519 1.74397 89.5906 0.65399C91.1501 0.218001 92.5276 4.43516e-06 93.7232 0C97.9337 0 102.027 3.26995 106.004 9.80985C109.98 16.3498 111.969 23.0804 111.969 30.0018C111.969 34.7432 110.591 38.2039 107.836 40.3839C105.757 42.0189 103.262 42.8364 100.351 42.8364C97.5958 42.8364 95.2046 42.0325 93.1773 40.4248C91.1501 38.8171 89.1488 36.1602 87.1734 32.4543C85.458 29.0753 84.1065 26.8681 83.1189 25.8326C82.1312 24.7971 80.9356 24.2794 79.5321 24.2794C77.6088 24.2794 76.2313 25.1241 75.3996 26.8136C74.5679 28.5031 74.152 31.2825 74.152 35.152L74.152 80.9313C74.152 85.6182 74.6198 89.0244 75.5555 91.1499C76.4912 93.2753 78.2586 94.9103 80.8577 96.0548C83.6647 97.3083 85.575 98.4936 86.5887 99.6109C87.6023 100.728 88.1091 102.268 88.1091 104.23C88.1091 108.154 85.575 111.069 80.5068 112.977C75.4386 114.884 67.6543 115.838 57.154 115.838C44.2625 115.838 34.6978 114.721 28.46 112.486C23.2099 110.633 20.5848 107.636 20.5848 103.494C20.5848 101.259 21.5205 99.5155 23.3918 98.262C23.8596 97.9895 25.705 97.3355 28.9279 96.3001C30.9032 95.7006 32.2677 94.5561 33.0214 92.8666C33.7752 91.1771 34.3859 87.9344 34.8538 83.1385C35.2696 78.8876 35.6595 72.007 36.0234 62.4969C36.3872 52.9868 36.5692 44.7438 36.5692 37.7679C36.5692 32.863 36.2053 29.3751 35.4776 27.3041C34.7498 25.2331 33.5542 24.1976 31.8908 24.1976C29.8635 24.1976 27.8882 25.7236 25.9649 28.7756C22.4821 34.3345 19.6231 38.0132 17.3879 39.8117C14.7368 41.9371 12.1637 42.9999 9.66861 42.9999C6.86159 42.9999 4.54841 41.8963 2.72904 39.689C0.909681 37.4818 0 34.6615 0 31.228C0 27.8491 0.727745 24.1295 2.18323 20.0693C3.63872 16.0091 5.58804 12.2623 8.03119 8.82887C11.9818 3.26995 15.8804 0.490493 19.7271 0.490493C20.7667 0.490493 21.9623 0.65399 23.3138 0.980985C26.1208 1.58048 28.421 1.98922 30.2144 2.20722C32.0078 2.42522 34.0741 2.53422 36.4132 2.53421L36.4132 2.53421Z" id="T" fill="none" fill-rule="evenodd" stroke="#DE356A" stroke-width="2" />
      <path d="M55.5825 115.832L55.5825 2.53421L77.5048 2.53421Q84.1325 2.28897 89.5906 0.65399C91.1501 0.218001 92.5276 4.43516e-06 93.7232 0C97.9337 0 102.027 3.26995 106.004 9.80985C109.98 16.3498 111.969 23.0804 111.969 30.0018C111.969 34.7432 110.591 38.2039 107.836 40.3839C105.757 42.0189 103.262 42.8364 100.351 42.8364C97.5958 42.8364 95.2046 42.0325 93.1773 40.4248C91.1501 38.8171 89.1488 36.1602 87.1734 32.4543C85.458 29.0753 84.1065 26.8681 83.1189 25.8326C82.1312 24.7971 80.9356 24.2794 79.5321 24.2794Q76.6471 24.2794 75.3996 26.8136Q74.152 29.3478 74.152 35.152L74.152 80.9313C74.152 85.6182 74.6198 89.0244 75.5555 91.1499C76.4912 93.2753 78.2586 94.9103 80.8577 96.0548Q85.0682 97.935 86.5887 99.6109C87.6023 100.728 88.1091 102.268 88.1091 104.23C88.1091 108.154 85.575 111.069 80.5068 112.977Q72.9044 115.838 57.154 115.838Q56.3599 115.838 55.5825 115.832Z" id="T-2-Intersect" fill="#DE356A" fill-rule="evenodd" stroke="none" />
    </g>
    <g id="Oyem-Tech" fill="#DE356A" transform="translate(84 210)">
      <path d="M127.547 25.0664L131.121 25.0664L131.121 16.5234Q131.121 14.2031 129.926 12.9609Q128.73 11.7188 126.422 11.7188Q123.82 11.7188 122.625 13.6406L122.438 13.6406L122.52 12.5859Q122.602 10.9805 122.602 10.5469L122.602 6.83203L119.027 6.83203L119.027 25.0664L122.602 25.0664L122.602 18.9023Q122.602 16.6172 123.27 15.5977Q123.938 14.5781 125.438 14.5781Q127.547 14.5781 127.547 17.4141L127.547 25.0664ZM15.5977 23.0156Q17.707 20.7305 17.707 16.4766Q17.707 12.2109 15.6152 9.9375Q13.5234 7.66406 9.57422 7.66406Q5.625 7.66406 3.50977 9.91992Q1.39453 12.1758 1.39453 16.4531Q1.39453 20.7305 3.50391 23.0156Q5.61328 25.3008 9.55078 25.3008Q13.4883 25.3008 15.5977 23.0156ZM85.5 25.0664L81.8672 25.0664L81.8672 10.957L77.2148 10.957L77.2148 7.93359L90.1523 7.93359L90.1523 10.957L85.5 10.957L85.5 25.0664ZM6.29297 20.8008Q5.20312 19.3477 5.20313 16.4766Q5.20312 13.6055 6.30469 12.1465Q7.40625 10.6875 9.57422 10.6875Q13.8984 10.6875 13.8984 16.4766Q13.8984 22.2539 9.55078 22.2539Q7.38281 22.2539 6.29297 20.8008ZM40.5586 25.3008Q37.3945 25.3008 35.6133 23.5547Q33.832 21.8086 33.832 18.6094Q33.832 15.3164 35.4785 13.5176Q37.125 11.7188 40.0313 11.7188Q42.8086 11.7188 44.3555 13.3008Q45.9023 14.8828 45.9023 17.6719L45.9023 19.4063L37.4531 19.4063Q37.5117 20.9297 38.3555 21.7852Q39.1992 22.6406 40.7227 22.6406Q41.9063 22.6406 42.9609 22.3945Q44.0156 22.1484 45.1641 21.6094L45.1641 24.375Q44.2266 24.8438 43.1602 25.0723Q42.0938 25.3008 40.5586 25.3008ZM56.9648 25.0664L60.5391 25.0664L60.5391 18.4922Q60.5391 16.4531 61.1895 15.5156Q61.8398 14.5781 63.1523 14.5781Q64.1719 14.5781 64.6465 15.2871Q65.1211 15.9961 65.1211 17.4141L65.1211 25.0664L68.707 25.0664L68.707 16.5234Q68.707 14.0039 67.5645 12.8613Q66.4219 11.7188 64.1953 11.7188Q62.9063 11.7188 61.8809 12.2227Q60.8555 12.7266 60.3281 13.6406L60.0117 13.6406Q58.9688 11.7188 56.0273 11.7188Q54.7383 11.7188 53.7422 12.2285Q52.7461 12.7383 52.2188 13.6406L52.0195 13.6406L51.5391 11.9648L48.8086 11.9648L48.8086 25.0664L52.3828 25.0664L52.3828 18.9023Q52.3828 16.5938 53.0039 15.5859Q53.625 14.5781 54.9961 14.5781Q56.0156 14.5781 56.4902 15.2871Q56.9648 15.9961 56.9648 17.4141L56.9648 25.0664ZM93.4922 23.5547Q95.2734 25.3008 98.4375 25.3008Q99.9727 25.3008 101.039 25.0723Q102.105 24.8438 103.043 24.375L103.043 21.6094Q101.895 22.1484 100.84 22.3945Q99.7852 22.6406 98.6016 22.6406Q97.0781 22.6406 96.2344 21.7852Q95.3906 20.9297 95.332 19.4063L103.781 19.4063L103.781 17.6719Q103.781 14.8828 102.234 13.3008Q100.688 11.7188 97.9102 11.7188Q95.0039 11.7188 93.3574 13.5176Q91.7109 15.3164 91.7109 18.6094Q91.7109 21.8086 93.4922 23.5547ZM112.008 25.3008Q105.891 25.3008 105.891 18.5859Q105.891 15.2461 107.555 13.4824Q109.219 11.7188 112.324 11.7188Q114.598 11.7188 116.402 12.6094L115.348 15.375Q114.504 15.0352 113.777 14.8184Q113.051 14.6016 112.324 14.6016Q109.535 14.6016 109.535 18.5625Q109.535 22.4063 112.324 22.4063Q113.355 22.4063 114.234 22.1309Q115.113 21.8555 115.992 21.2695L115.992 24.3281Q115.125 24.8789 114.24 25.0898Q113.355 25.3008 112.008 25.3008ZM23.0156 11.9648L19.1016 11.9648L24.3047 24.9727L24.0938 25.6172Q23.6953 26.7891 22.9863 27.3691Q22.2773 27.9492 21.3281 27.9492Q20.5664 27.9492 19.9219 27.7969L19.9219 30.6328Q20.8125 30.832 21.7383 30.832Q23.625 30.832 25.0371 29.8125Q26.4492 28.793 27.2109 26.7422L32.7539 11.9648L28.9219 11.9648L26.4961 19.3359Q26.1211 20.4023 25.9922 21.6094L25.9219 21.6094Q25.8047 20.2969 25.4883 19.3359L23.0156 11.9648ZM40.0547 14.2617Q38.918 14.2617 38.2734 14.9824Q37.6289 15.7031 37.5352 17.0273L42.5508 17.0273Q42.5273 15.7031 41.8594 14.9824Q41.1914 14.2617 40.0547 14.2617ZM96.1523 14.9824Q96.7969 14.2617 97.9336 14.2617Q99.0703 14.2617 99.7383 14.9824Q100.406 15.7031 100.43 17.0273L95.4141 17.0273Q95.5078 15.7031 96.1523 14.9824Z" />
    </g>
  </g>
</svg>